<svg xmlns="http://www.w3.org/2000/svg" viewBox="0 0 500 500"><g id="freepik--background-complete--inject-30"><path d="M404.79,385.49l13.36-.28,6.58-.11c2.19-.05,4.36,0,6.54-.06l-.44.45-.06-11.19.5.5L418,374.74c-4.41,0-8.82-.12-13.24-.17l.28-.27c0,1.83-.09,3.67-.14,5.54Zm0,0-.14-5.54c0-1.86-.11-3.75-.13-5.65V374h.27c4.42,0,8.83-.16,13.24-.17l13.24-.06h.5v.5l0,11.19v.45h-.45c-2.23,0-4.47,0-6.69-.05l-6.66-.11Z" style="fill:#ebebeb"></path><path d="M419.56,399.6l13.36-.28,6.58-.11c2.19,0,4.36,0,6.54-.06l-.44.45-.05-11.19.49.5-13.24-.06c-4.41,0-8.82-.12-13.24-.17l.28-.27c0,1.83-.09,3.67-.13,5.54Zm0,0-.14-5.54c0-1.86-.11-3.75-.13-5.65v-.27h.27c4.42-.05,8.83-.16,13.24-.17l13.24-.06h.51v.5l-.05,11.19v.45H446c-2.23,0-4.46,0-6.69-.05l-6.66-.11Z" style="fill:#ebebeb"></path><path d="M390,399.6l13.36-.28,6.58-.11c2.18,0,4.36,0,6.54-.06l-.44.45L416,388.41l.5.5-13.24-.06c-4.41,0-8.83-.12-13.24-.17l.27-.27c0,1.83-.08,3.67-.13,5.54Zm0,0-.14-5.54c-.05-1.86-.11-3.75-.13-5.65v-.27H390c4.41-.05,8.83-.16,13.24-.17l13.24-.06h.5v.5L417,399.6v.45h-.44c-2.23,0-4.47,0-6.69-.05l-6.66-.11Z" style="fill:#ebebeb"></path><path d="M68.73,399.6l13.35-.28,6.58-.11c2.19,0,4.37,0,6.55-.06l-.45.45-.05-11.19.5.5L82,388.85c-4.42,0-8.83-.12-13.24-.17l.27-.27c0,1.83-.09,3.67-.13,5.54Zm0,0-.15-5.54c0-1.86-.11-3.75-.13-5.65v-.27h.28c4.41-.05,8.82-.16,13.24-.17l13.24-.06h.5v.5l-.06,11.19v.45h-.44c-2.23,0-4.47,0-6.7-.05l-6.66-.11Z" style="fill:#ebebeb"></path><path d="M68.73,77.8l13.35-.28,6.58-.11c2.19,0,4.37,0,6.55,0l-.45.44-.05-11.19.5.5L82,67.05c-4.42,0-8.83-.11-13.24-.16l.27-.28c0,1.83-.09,3.68-.13,5.54Zm0,0-.15-5.53c0-1.87-.11-3.76-.13-5.66v-.27h.28c4.41,0,8.82-.16,13.24-.16l13.24-.07h.5v.5L95.65,77.8v.45h-.44c-2.23,0-4.47,0-6.7-.06l-6.66-.11Z" style="fill:#ebebeb"></path><path d="M54,91.91l13.35-.28,6.58-.11c2.19,0,4.36,0,6.55,0l-.45.44,0-11.19.5.5L67.2,81.16c-4.42,0-8.83-.11-13.24-.16l.27-.28c0,1.83-.09,3.68-.13,5.54Zm0,0-.15-5.53c0-1.87-.11-3.76-.13-5.66v-.27H54c4.41,0,8.82-.16,13.24-.16l13.24-.07h.5v.5l-.06,11.19v.45h-.44c-2.24,0-4.47,0-6.7-.06l-6.66-.11Z" style="fill:#ebebeb"></path><path d="M419.56,77.82l13.36-.28,6.58-.12c2.19,0,4.36,0,6.54,0l-.44.45-.05-11.19.49.5-13.24-.07c-4.41,0-8.82-.11-13.24-.16l.28-.27c0,1.83-.09,3.67-.13,5.53Zm0,0-.14-5.54c0-1.87-.11-3.76-.13-5.65v-.27h.27c4.42,0,8.83-.16,13.24-.16L446,66.13h.51v.51l-.05,11.19v.44H446c-2.23,0-4.46,0-6.69-.05l-6.66-.12Z" style="fill:#ebebeb"></path><path d="M296.21,270.33l-13.35.28-6.58.11c-2.19,0-4.37,0-6.55,0l.45-.44.05,11.19-.5-.5,13.24.06c4.42,0,8.83.11,13.24.16l-.27.28c0-1.83.09-3.68.13-5.54Zm0,0,.15,5.53c0,1.87.11,3.76.13,5.66v.27h-.28c-4.41,0-8.82.16-13.24.16l-13.24.07h-.5v-.5l.06-11.19v-.45h.44c2.23,0,4.47,0,6.7.06l6.66.11Z" style="fill:#ebebeb"></path><path d="M281.44,256.22l-13.35.28-6.58.11c-2.19.05-4.37,0-6.55.05l.45-.44.05,11.19-.5-.5,13.24.06c4.41,0,8.83.11,13.24.16l-.27.28c0-1.83.08-3.68.13-5.54Zm0,0,.14,5.53c.05,1.87.12,3.76.13,5.66v.27h-.28c-4.41.05-8.83.16-13.24.16l-13.24.07h-.5v-.5l.06-11.19v-.45H255c2.23,0,4.47,0,6.7.06l6.66.11Z" style="fill:#ebebeb"></path><path d="M95.32,74.08c-51.81,0-51.9,73.69,0,73.69S147.22,74.08,95.32,74.08Z" style="fill:#ebebeb"></path><path d="M126.83,117.83c-2.76,12.68-13.27,23.67-31.51,23.67-43.07,0-43-61.15,0-61.15h.84C55.69,81.1,55.89,139,97,139,113.7,139,123.69,129.33,126.83,117.83Z" style="fill:#dbdbdb"></path><path d="M95.63,88.41A1.3,1.3,0,0,1,97,89.64v2a19.27,19.27,0,0,1,10,3.59c.51.36.79.67.79,1.18a1.39,1.39,0,0,1-1.46,1.28,1.46,1.46,0,0,1-1-.35,16.81,16.81,0,0,0-8.41-3.34v14.36C105.38,110.06,109,113,109,118c0,5.43-5,9.28-12,9.49v4a1.35,1.35,0,0,1-2.69,0v-4.06a22.06,22.06,0,0,1-12.61-5,1.33,1.33,0,0,1-.62-1.08,1.46,1.46,0,0,1,2.41-.92,18.86,18.86,0,0,0,10.94,4.67V110.52C86,108.83,82.51,106,82.51,100.87s4.93-9.13,11.77-9.28v-2A1.31,1.31,0,0,1,95.63,88.41ZM94.4,107.9v-14c-5.44.1-9,3.08-9,6.77C85.37,104.16,87.16,106.31,94.4,107.9ZM96.86,111v14.16c5.61-.11,9.25-3.08,9.25-7C106.11,114.67,104.15,112.52,96.86,111Z" style="fill:#dbdbdb"></path><path d="M399,303.38c-46.66,8.38-34.33,77.49,12.4,69.11S445.71,295,399,303.38Z" style="fill:#dbdbdb"></path><path d="M403.36,302.6c-44.46,8-32.14,77.09,12.4,69.1S447.9,294.61,403.36,302.6Z" style="fill:#ebebeb"></path><path d="M437.76,338.78c-.24,12.31-7.41,24.24-23.06,27.05-37,6.63-47.19-50.74-10.29-57.36l.73-.11c-34.61,6.92-24.69,61.21,10.55,54.89C430.06,360.67,437,350,437.76,338.78Z" style="fill:#dbdbdb"></path><path d="M412.24,316a1.18,1.18,0,0,1,1,1.3L413,319.2a15.94,15.94,0,0,1,8.24,4.41,1.38,1.38,0,0,1,.54,1.2,1.25,1.25,0,0,1-1.4,1.07,1.22,1.22,0,0,1-.83-.45,14,14,0,0,0-6.91-4L411.08,335c7.19,2.42,10,5.56,9.41,10.31-.6,5.15-5.35,8.28-11.44,7.76l-.44,3.79a1.19,1.19,0,0,1-1.31,1,1.18,1.18,0,0,1-1-1.3l.45-3.83a18.4,18.4,0,0,1-10.37-6,1.26,1.26,0,0,1-.41-1.09,1.27,1.27,0,0,1,1.35-1.07,1.22,1.22,0,0,1,.84.45,15.83,15.83,0,0,0,8.94,5.53l1.63-13.84c-7.09-2.46-9.79-5.48-9.22-10.33s5.29-8.14,11.23-7.59l.21-1.85A1.19,1.19,0,0,1,412.24,316ZM409,334.28,410.56,321c-4.72-.46-8.16,2-8.57,5.48C401.6,329.81,402.91,332,409,334.28Zm1.79,3.21-1.58,13.4c4.87.47,8.35-2,8.79-5.66C418.39,341.88,416.93,339.64,410.79,337.49Z" style="fill:#dbdbdb"></path><path d="M443.06,172.39c-29.13,9-58.26-30.27-87.39-21.26A236,236,0,0,1,371,125.5c23.71,4,47.42,28.81,71.13,22.29Z" style="fill:#ebebeb"></path><path d="M414,156.78c-.93,4.32-7,5.32-13.58,1.83s-10.46-9.09-8.69-12.87,7.85-4.39,13.57-1.47S414.92,152.51,414,156.78Z" style="fill:#dbdbdb"></path><path d="M384.59,141.89c-.48.86-2.21,1-3.88.39s-2.58-1.75-2.06-2.65,2.26-1.17,3.87-.52S385.06,141,384.59,141.89Z" style="fill:#dbdbdb"></path><path d="M427.41,160.46c-.1,1.06-1.53,1.68-3.19,1.25s-2.9-1.68-2.76-2.7,1.58-1.45,3.19-1.06S427.5,159.41,427.41,160.46Z" style="fill:#dbdbdb"></path><path d="M373.15,125.93a245.39,245.39,0,0,0-14.84,24.51c-.88.19-1.76.41-2.65.69A236,236,0,0,1,371,125.5C371.71,125.63,372.43,125.77,373.15,125.93Z" style="fill:#dbdbdb"></path><path d="M443.06,172.39c-.88.27-1.76.5-2.65.69q-.21-12.39-.43-24.79c.72-.14,1.44-.31,2.15-.5Z" style="fill:#dbdbdb"></path><path d="M443,170.84l.06,1.55c-29.13,9-58.26-30.27-87.4-21.26l1-1.85C385.42,141.42,414.21,179.68,443,170.84Z" style="fill:#dbdbdb"></path><path d="M442.13,147.79l.06,1.54c-24.05,6.67-48.1-18.92-72.16-22.42l1-1.41C394.71,129.52,418.42,154.31,442.13,147.79Z" style="fill:#dbdbdb"></path><path d="M365,148.21a32.14,32.14,0,0,0-5.78.48c.68-1.27,1.37-2.52,2.06-3.74C364.42,144.64,366.09,146.36,365,148.21Z" style="fill:#dbdbdb"></path><path d="M440.33,168.07l.06,3.45a30,30,0,0,1-5.79.65C434.65,170.25,437.21,168.73,440.33,168.07Z" style="fill:#dbdbdb"></path><path d="M435.17,150.41a30.82,30.82,0,0,0,4.84-.56l.06,3.45C437.31,153.85,435.12,152.32,435.17,150.41Z" style="fill:#dbdbdb"></path><path d="M370.15,130.38q1-1.57,2.07-3.09c1.61.32,3.21.73,4.82,1.22C376,130.08,372.91,130.77,370.15,130.38Z" style="fill:#dbdbdb"></path><path d="M404.83,146.09c.27.14.46.39.41.55s-.11.34-.17.5a14.16,14.16,0,0,1,3.55,2.77c.17.19.26.32.22.44s-.35.2-.65.05a1,1,0,0,1-.37-.28,12.47,12.47,0,0,0-3-2.43l-1.16,3.48c3.26,2.13,4.49,3.53,4.14,4.79s-2.71,1.31-5.63-.15c-.11.32-.22.65-.32,1-.06.16-.36.16-.67,0s-.52-.43-.46-.59c.11-.32.22-.64.34-1a17.21,17.21,0,0,1-4.76-3.87c-.13-.16-.2-.28-.15-.39s.39-.16.69,0a.91.91,0,0,1,.38.3,14.33,14.33,0,0,0,4.07,3.43l1.22-3.51c-3.2-2.14-4.32-3.52-3.84-4.72s2.74-1.16,5.36.14c.06-.16.11-.32.17-.47S404.55,146,404.83,146.09Zm-2.09,4.46,1.17-3.37c-2.1-1-3.75-1.06-4.08-.19S400,148.69,402.74,150.55Zm.73,1.26-1.14,3.42c2.32,1.17,4,1.18,4.32.21S406.27,153.66,403.47,151.81Z" style="fill:#ebebeb"></path><path d="M396.71,183.38c-23.14-10.41-46.29,18.8-69.44,8.39,1.8-5.48,3.6-11.21,5.4-17.14,18.84,3.83,37.67-14.5,56.51-12.28C391.69,169,394.2,175.94,396.71,183.38Z" style="fill:#ebebeb"></path><path d="M370.31,175.11c.53,3.34-3.26,7.56-8.49,9.72s-9.34.74-9.2-2.86,3.93-7.79,8.48-9.67S369.77,171.73,370.31,175.11Z" style="fill:#dbdbdb"></path><path d="M346.79,183.28c-.08.84-1.22,1.78-2.54,2s-2.3-.31-2.17-1.14,1.26-1.63,2.54-1.88S346.88,182.45,346.79,183.28Z" style="fill:#dbdbdb"></path><path d="M380.81,171.86c.22.79-.68,1.57-2,1.84s-2.54-.07-2.72-.83.72-1.68,2-2S380.59,171.08,380.81,171.86Z" style="fill:#dbdbdb"></path><path d="M334.38,174.92c-1.67,6.07-3.33,12-5,17.69-.7-.24-1.41-.52-2.11-.84,1.8-5.48,3.6-11.21,5.4-17.14C333.24,174.75,333.81,174.84,334.38,174.92Z" style="fill:#dbdbdb"></path><path d="M396.71,183.38q-1.05-.48-2.1-.84c-2.38-7.15-4.76-13.89-7.14-20.33.57,0,1.14.08,1.71.14C391.69,169,394.2,175.94,396.71,183.38Z" style="fill:#dbdbdb"></path><path d="M396.24,182c.16.46.31.93.47,1.4-23.14-10.41-46.29,18.8-69.44,8.39.12-.34.23-.69.34-1C350.49,200.64,373.36,172.22,396.24,182Z" style="fill:#dbdbdb"></path><path d="M389.18,162.35c.16.42.32.84.47,1.26-19.1-2.61-38.21,16.3-57.32,12.14.12-.37.23-.75.34-1.12C351.51,178.46,370.34,160.14,389.18,162.35Z" style="fill:#dbdbdb"></path><path d="M334.29,192.61a25.53,25.53,0,0,1-4.6-1.08c.23-.8.47-1.6.7-2.4C332.86,189.87,334.61,191.18,334.29,192.61Z" style="fill:#dbdbdb"></path><path d="M393.17,178.26l1,2.93a26.09,26.09,0,0,0-4.6-1.05C389.08,178.65,390.69,177.57,393.17,178.26Z" style="fill:#dbdbdb"></path><path d="M384.07,163.41a30.92,30.92,0,0,1,3.85,0c.33.9.66,1.8,1,2.72C386.72,165.9,384.55,164.84,384.07,163.41Z" style="fill:#dbdbdb"></path><path d="M333.37,178.58c.24-.84.47-1.67.7-2.52a27.43,27.43,0,0,0,3.83.29C337.59,177.8,335.56,179,333.37,178.58Z" style="fill:#dbdbdb"></path><path d="M361.28,173.8c.22-.09.42-.05.42.09l0,.43a7.44,7.44,0,0,1,3.1-.48c.16,0,.26,0,.27.15s-.18.35-.42.44a.51.51,0,0,1-.32,0,6.53,6.53,0,0,0-2.63.35c.06,1,.13,2,.19,3,2.72-.75,3.92-.6,4,.44s-1.43,2.57-3.74,3.56l.06.84c0,.14-.19.34-.44.44s-.45.06-.46-.08l0-.86a8.77,8.77,0,0,1-4.17.6c-.13,0-.2-.06-.2-.15s.21-.37.45-.46a.65.65,0,0,1,.33-.05,7.17,7.17,0,0,0,3.6-.44c-.06-1-.12-2.05-.17-3.08-2.68.72-3.78.54-3.79-.56s1.47-2.54,3.54-3.42l0-.41C360.89,174.08,361.06,173.89,361.28,173.8Zm-.14,4.26c-.06-1-.11-2-.16-3-1.66.7-2.74,1.77-2.72,2.56S358.85,178.64,361.14,178.06Zm.82.34.18,3c1.84-.77,3-1.87,2.9-2.68S364.3,177.77,362,178.4Z" style="fill:#ebebeb"></path><path d="M288.35,321.66c-26.61-11-53.23,13-79.84,2.06,2.75-6,5.5-12.38,8.25-19.06,21.65,3.65,43.31-11.11,65-6.52Q285,309.57,288.35,321.66Z" style="fill:#ebebeb"></path><path d="M259,309.8c.24,3.95-4.44,8.16-10.45,9.67s-10.43-.83-9.88-5,5.21-8.39,10.44-9.7S258.74,305.81,259,309.8Z" style="fill:#dbdbdb"></path><path d="M232,315.18c-.18.95-1.56,1.89-3.09,2s-2.56-.58-2.33-1.51,1.61-1.75,3.09-1.9S232.18,314.24,232,315.18Z" style="fill:#dbdbdb"></path><path d="M271.1,307.8c.16.92-.94,1.69-2.46,1.8s-2.85-.46-3-1.37,1-1.8,2.46-1.93S270.94,306.88,271.1,307.8Z" style="fill:#dbdbdb"></path><path d="M218.72,305c-2.6,6.83-5.19,13.41-7.79,19.67-.81-.27-1.61-.57-2.42-.9,2.75-6,5.5-12.38,8.24-19.06C217.41,304.77,218.07,304.87,218.72,305Z" style="fill:#dbdbdb"></path><path d="M288.35,321.66c-.81-.34-1.62-.64-2.43-.91q-3.07-11.76-6.17-23c.66.11,1.32.23,2,.37Q285,309.57,288.35,321.66Z" style="fill:#dbdbdb"></path><path d="M287.93,320.14c.14.5.28,1,.41,1.52-26.61-11-53.22,13-79.83,2.06.18-.38.35-.76.52-1.14C235.33,333,261.63,309.64,287.93,320.14Z" style="fill:#dbdbdb"></path><path d="M281.72,298.14l.42,1.44c-22-4.91-43.93,10.34-65.9,6.34.17-.42.34-.84.52-1.26C238.41,308.31,260.07,293.55,281.72,298.14Z" style="fill:#dbdbdb"></path><path d="M216.7,324.72a39,39,0,0,1-5.28-1.28l1.09-2.65C215.35,321.6,217.23,323.15,216.7,324.72Z" style="fill:#dbdbdb"></path><path d="M284.68,316c.29,1.08.57,2.17.86,3.26a39.27,39.27,0,0,0-5.29-1.31C279.86,316.27,281.84,315.18,284.68,316Z" style="fill:#dbdbdb"></path><path d="M275.72,298.68a41.25,41.25,0,0,1,4.42.51c.29,1,.58,2.09.86,3.14C278.48,301.83,276.12,300.35,275.72,298.68Z" style="fill:#dbdbdb"></path><path d="M217.15,309.06l1.08-2.83a43.65,43.65,0,0,0,4.41.35C222.12,308.21,219.66,309.46,217.15,309.06Z" style="fill:#dbdbdb"></path><path d="M249.13,306.57c.25-.06.46,0,.45.19s0,.33,0,.5a7.77,7.77,0,0,1,3.48,0c.18,0,.27.1.27.22s-.23.37-.51.44a.74.74,0,0,1-.36,0,6.6,6.6,0,0,0-2.94-.1c0,1.18-.07,2.36-.11,3.54,3.09-.36,4.4.06,4.41,1.28s-1.87,2.71-4.52,3.41l0,1c0,.16-.25.36-.53.43s-.51,0-.5-.18c0-.33,0-.67,0-1a9.56,9.56,0,0,1-4.67-.08c-.14-.05-.22-.1-.21-.22s.28-.38.55-.44a.62.62,0,0,1,.37,0,7.81,7.81,0,0,0,4,.16c0-1.2.09-2.41.14-3.61-3,.33-4.24-.07-4.13-1.35s1.9-2.69,4.28-3.31c0-.16,0-.32,0-.49S248.88,306.63,249.13,306.57Zm-.62,4.91c0-1.15.09-2.3.14-3.45-1.91.49-3.22,1.54-3.28,2.45S245.92,311.73,248.51,311.48Zm.87.56-.12,3.48c2.12-.54,3.49-1.59,3.49-2.55S252,311.75,249.38,312Z" style="fill:#ebebeb"></path></g><g id="freepik--Coin--inject-30"><path d="M250,172.75c-61.65,0-61.75,87.67,0,87.67S311.75,172.75,250,172.75Z" style="fill:#00E793"></path><path d="M250,172.75c-61.65,0-61.75,87.67,0,87.67S311.75,172.75,250,172.75Z" style="opacity:0.1"></path><path d="M250,168.68c-61.65,0-61.75,87.67,0,87.67S311.75,168.68,250,168.68Z" style="fill:#00E793"></path><path d="M287.49,220.73c-3.29,15.08-15.79,28.16-37.5,28.16-51.24,0-51.16-72.76,0-72.76.34,0,.67,0,1,0-48.15.88-47.92,69.79.94,69.79C271.87,245.94,283.75,234.41,287.49,220.73Z" style="opacity:0.1"></path><g style="opacity:0.1"><path d="M250.37,185.72a1.57,1.57,0,0,1,1.6,1.47v2.44a22.87,22.87,0,0,1,11.87,4.27c.6.43.93.79.93,1.41a1.64,1.64,0,0,1-1.73,1.52,1.71,1.71,0,0,1-1.2-.43,19.88,19.88,0,0,0-10-4v17.08c10.14,2,14.41,5.44,14.41,11.42,0,6.47-5.94,11-14.27,11.29V237a1.61,1.61,0,0,1-3.2,0v-4.82a26.27,26.27,0,0,1-15-5.92A1.57,1.57,0,0,1,233,225a1.68,1.68,0,0,1,1.67-1.53,1.73,1.73,0,0,1,1.2.43,22.52,22.52,0,0,0,13,5.55V212c-10-2-14.14-5.37-14.14-11.48s5.87-10.86,14-11v-2.32A1.56,1.56,0,0,1,250.37,185.72Zm-1.47,23.19V192.25c-6.47.13-10.74,3.66-10.74,8.06C238.16,204.46,240.3,207,248.9,208.91Zm2.93,3.73v16.84c6.67-.12,11-3.66,11-8.3C262.84,217,260.51,214.41,251.83,212.64Z"></path></g></g></svg>